<?xml version="1.0" encoding="UTF-8"?>
<!DOCTYPE score-partwise PUBLIC "-//Recordare//DTD MusicXML 3.1 Partwise//EN" "http://www.musicxml.org/dtds/partwise.dtd">
<score-partwise version="3.1">
  <identification>
    <encoding>
      <software>MuseScore 3.6.2</software>
      <encoding-date>2022-11-15</encoding-date>
      <supports element="accidental" type="yes"/>
      <supports element="beam" type="yes"/>
      <supports element="print" attribute="new-page" type="yes" value="yes"/>
      <supports element="print" attribute="new-system" type="yes" value="yes"/>
      <supports element="stem" type="yes"/>
      </encoding>
    </identification>
  <defaults>
    <scaling>
      <millimeters>7</millimeters>
      <tenths>40</tenths>
      </scaling>
    <page-layout>
      <page-height>1696.75</page-height>
      <page-width>1200.34</page-width>
      <page-margins type="even">
        <left-margin>17.1428</left-margin>
        <right-margin>17.1428</right-margin>
        <top-margin>85.7143</top-margin>
        <bottom-margin>85.7143</bottom-margin>
        </page-margins>
      <page-margins type="odd">
        <left-margin>17.1428</left-margin>
        <right-margin>17.1428</right-margin>
        <top-margin>85.7143</top-margin>
        <bottom-margin>85.7143</bottom-margin>
        </page-margins>
      </page-layout>
    <word-font font-family="Edwin" font-size="10"/>
    <lyric-font font-family="Edwin" font-size="10"/>
    </defaults>
  <part-list>
    <score-part id="P1">
      <part-name>Tuba</part-name>
      <part-abbreviation>Tba.</part-abbreviation>
      <score-instrument id="P1-I1">
        <instrument-name>Tuba</instrument-name>
        </score-instrument>
      <midi-device id="P1-I1" port="1"></midi-device>
      <midi-instrument id="P1-I1">
        <midi-channel>1</midi-channel>
        <midi-program>59</midi-program>
        <volume>78.7402</volume>
        <pan>0</pan>
        </midi-instrument>
      </score-part>
    </part-list>
  <part id="P1">
    <measure number="1" width="136.54">
      <print>
        <system-layout>
          <system-margins>
            <left-margin>50.00</left-margin>
            <right-margin>0.00</right-margin>
            </system-margins>
          <top-system-distance>170.00</top-system-distance>
          </system-layout>
        </print>
      <attributes>
        <divisions>1</divisions>
        <key>
          <fifths>0</fifths>
          </key>
        <time>
          <beats>4</beats>
          <beat-type>4</beat-type>
          </time>
        <clef>
          <sign>G</sign>
          <line>2</line>
          </clef>
        </attributes>
      <note default-x="77.22" default-y="-85.00">
        <pitch>
          <step>C</step>
          <octave>3</octave>
          </pitch>
        <duration>2</duration>
        <voice>1</voice>
        <type>half</type>
        <stem>up</stem>
        <lyric number="1" placement="below" color="#000000">
          <syllabic>single</syllabic>
          <text>דו
C3</text>
          </lyric>
        </note>
      <note>
        <rest/>
        <duration>2</duration>
        <voice>1</voice>
        <type>half</type>
        </note>
      </measure>
    <measure number="2" width="104.92">
      <note default-x="24.46" default-y="-85.00">
        <pitch>
          <step>C</step>
          <alter>1</alter>
          <octave>3</octave>
          </pitch>
        <duration>2</duration>
        <voice>1</voice>
        <type>half</type>
        <accidental>sharp</accidental>
        <stem>up</stem>
        <lyric number="1" placement="below" color="#000000">
          <syllabic>single</syllabic>
          <text>♯דו
C3♯</text>
          </lyric>
        </note>
      <note default-x="63.79" default-y="-80.00">
        <pitch>
          <step>D</step>
          <alter>-1</alter>
          <octave>3</octave>
          </pitch>
        <duration>2</duration>
        <voice>1</voice>
        <type>half</type>
        <accidental>flat</accidental>
        <stem>down</stem>
        <lyric number="1" placement="below" color="#000000">
          <syllabic>single</syllabic>
          <text>♭רה
D3♭</text>
          </lyric>
        </note>
      </measure>
    <measure number="3" width="75.82">
      <note default-x="16.50" default-y="-80.00">
        <pitch>
          <step>D</step>
          <octave>3</octave>
          </pitch>
        <duration>2</duration>
        <voice>1</voice>
        <type>half</type>
        <stem>down</stem>
        <lyric number="1" placement="below" color="#000000">
          <syllabic>single</syllabic>
          <text>רה
D3</text>
          </lyric>
        </note>
      <note>
        <rest/>
        <duration>2</duration>
        <voice>1</voice>
        <type>half</type>
        </note>
      </measure>
    <measure number="4" width="104.92">
      <note default-x="24.46" default-y="-80.00">
        <pitch>
          <step>D</step>
          <alter>1</alter>
          <octave>3</octave>
          </pitch>
        <duration>2</duration>
        <voice>1</voice>
        <type>half</type>
        <accidental>sharp</accidental>
        <stem>down</stem>
        <lyric number="1" placement="below" color="#000000">
          <syllabic>single</syllabic>
          <text>♯רה
D3♯</text>
          </lyric>
        </note>
      <note default-x="63.79" default-y="-75.00">
        <pitch>
          <step>E</step>
          <alter>-1</alter>
          <octave>3</octave>
          </pitch>
        <duration>2</duration>
        <voice>1</voice>
        <type>half</type>
        <accidental>flat</accidental>
        <stem>down</stem>
        <lyric number="1" placement="below" color="#000000">
          <syllabic>single</syllabic>
          <text>♭מי
E3♭</text>
          </lyric>
        </note>
      </measure>
    <measure number="5" width="75.82">
      <note default-x="16.50" default-y="-75.00">
        <pitch>
          <step>E</step>
          <octave>3</octave>
          </pitch>
        <duration>2</duration>
        <voice>1</voice>
        <type>half</type>
        <stem>down</stem>
        <lyric number="1" placement="below" color="#000000">
          <syllabic>single</syllabic>
          <text>מי
E3</text>
          </lyric>
        </note>
      <note>
        <rest/>
        <duration>2</duration>
        <voice>1</voice>
        <type>half</type>
        </note>
      </measure>
    <measure number="6" width="75.82">
      <note default-x="16.50" default-y="-70.00">
        <pitch>
          <step>F</step>
          <octave>3</octave>
          </pitch>
        <duration>2</duration>
        <voice>1</voice>
        <type>half</type>
        <stem>down</stem>
        <lyric number="1" placement="below" color="#000000">
          <syllabic>single</syllabic>
          <text>פה
F3</text>
          </lyric>
        </note>
      <note>
        <rest/>
        <duration>2</duration>
        <voice>1</voice>
        <type>half</type>
        </note>
      </measure>
    <measure number="7" width="104.92">
      <note default-x="24.46" default-y="-70.00">
        <pitch>
          <step>F</step>
          <alter>1</alter>
          <octave>3</octave>
          </pitch>
        <duration>2</duration>
        <voice>1</voice>
        <type>half</type>
        <accidental>sharp</accidental>
        <stem>down</stem>
        <lyric number="1" placement="below" color="#000000">
          <syllabic>single</syllabic>
          <text>♯פה
F3♯</text>
          </lyric>
        </note>
      <note default-x="63.79" default-y="-65.00">
        <pitch>
          <step>G</step>
          <alter>-1</alter>
          <octave>3</octave>
          </pitch>
        <duration>2</duration>
        <voice>1</voice>
        <type>half</type>
        <accidental>flat</accidental>
        <stem>down</stem>
        <lyric number="1" placement="below" color="#000000">
          <syllabic>single</syllabic>
          <text>♭סול
G3♭</text>
          </lyric>
        </note>
      </measure>
    <measure number="8" width="75.82">
      <note default-x="16.50" default-y="-65.00">
        <pitch>
          <step>G</step>
          <octave>3</octave>
          </pitch>
        <duration>2</duration>
        <voice>1</voice>
        <type>half</type>
        <stem>down</stem>
        <lyric number="1" placement="below" color="#000000">
          <syllabic>single</syllabic>
          <text>סול
G3</text>
          </lyric>
        </note>
      <note>
        <rest/>
        <duration>2</duration>
        <voice>1</voice>
        <type>half</type>
        </note>
      </measure>
    <measure number="9" width="104.92">
      <note default-x="24.46" default-y="-65.00">
        <pitch>
          <step>G</step>
          <alter>1</alter>
          <octave>3</octave>
          </pitch>
        <duration>2</duration>
        <voice>1</voice>
        <type>half</type>
        <accidental>sharp</accidental>
        <stem>down</stem>
        <lyric number="1" placement="below" color="#000000">
          <syllabic>single</syllabic>
          <text>♯סול
G3♯</text>
          </lyric>
        </note>
      <note default-x="63.79" default-y="-60.00">
        <pitch>
          <step>A</step>
          <alter>-1</alter>
          <octave>3</octave>
          </pitch>
        <duration>2</duration>
        <voice>1</voice>
        <type>half</type>
        <accidental>flat</accidental>
        <stem>down</stem>
        <lyric number="1" placement="below" color="#000000">
          <syllabic>single</syllabic>
          <text>♭לה
A3♭</text>
          </lyric>
        </note>
      </measure>
    <measure number="10" width="75.82">
      <note default-x="16.50" default-y="-60.00">
        <pitch>
          <step>A</step>
          <octave>3</octave>
          </pitch>
        <duration>2</duration>
        <voice>1</voice>
        <type>half</type>
        <stem>down</stem>
        <lyric number="1" placement="below" color="#000000">
          <syllabic>single</syllabic>
          <text>לה
A3</text>
          </lyric>
        </note>
      <note>
        <rest/>
        <duration>2</duration>
        <voice>1</voice>
        <type>half</type>
        </note>
      </measure>
    <measure number="11" width="104.92">
      <note default-x="24.46" default-y="-60.00">
        <pitch>
          <step>A</step>
          <alter>1</alter>
          <octave>3</octave>
          </pitch>
        <duration>2</duration>
        <voice>1</voice>
        <type>half</type>
        <accidental>sharp</accidental>
        <stem>down</stem>
        <lyric number="1" placement="below" color="#000000">
          <syllabic>single</syllabic>
          <text>♯לה
A3♯</text>
          </lyric>
        </note>
      <note default-x="63.79" default-y="-55.00">
        <pitch>
          <step>B</step>
          <alter>-1</alter>
          <octave>3</octave>
          </pitch>
        <duration>2</duration>
        <voice>1</voice>
        <type>half</type>
        <accidental>flat</accidental>
        <stem>down</stem>
        <lyric number="1" placement="below" color="#000000">
          <syllabic>single</syllabic>
          <text>♭סי
B3♭</text>
          </lyric>
        </note>
      </measure>
    <measure number="12" width="75.82">
      <note default-x="16.50" default-y="-55.00">
        <pitch>
          <step>B</step>
          <octave>3</octave>
          </pitch>
        <duration>2</duration>
        <voice>1</voice>
        <type>half</type>
        <stem>up</stem>
        <lyric number="1" placement="below" color="#000000">
          <syllabic>single</syllabic>
          <text>סי
B3</text>
          </lyric>
        </note>
      <note>
        <rest/>
        <duration>2</duration>
        <voice>1</voice>
        <type>half</type>
        </note>
      </measure>
    <measure number="13" width="132.03">
      <print new-system="yes">
        <system-layout>
          <system-margins>
            <left-margin>0.00</left-margin>
            <right-margin>0.00</right-margin>
            </system-margins>
          <system-distance>150.00</system-distance>
          </system-layout>
        </print>
      <note default-x="62.09" default-y="-50.00">
        <pitch>
          <step>C</step>
          <octave>4</octave>
          </pitch>
        <duration>2</duration>
        <voice>1</voice>
        <type>half</type>
        <stem>up</stem>
        <lyric number="1" placement="below" color="#000000">
          <syllabic>single</syllabic>
          <text>דו
C4</text>
          </lyric>
        </note>
      <note>
        <rest/>
        <duration>2</duration>
        <voice>1</voice>
        <type>half</type>
        </note>
      </measure>
    <measure number="14" width="111.33">
      <note default-x="24.46" default-y="-50.00">
        <pitch>
          <step>C</step>
          <alter>1</alter>
          <octave>4</octave>
          </pitch>
        <duration>2</duration>
        <voice>1</voice>
        <type>half</type>
        <accidental>sharp</accidental>
        <stem>up</stem>
        <lyric number="1" placement="below" color="#000000">
          <syllabic>single</syllabic>
          <text>♯דו
C4♯</text>
          </lyric>
        </note>
      <note default-x="67.00" default-y="-45.00">
        <pitch>
          <step>D</step>
          <alter>-1</alter>
          <octave>4</octave>
          </pitch>
        <duration>2</duration>
        <voice>1</voice>
        <type>half</type>
        <accidental>flat</accidental>
        <stem>down</stem>
        <lyric number="1" placement="below" color="#000000">
          <syllabic>single</syllabic>
          <text>♭רה
D4♭</text>
          </lyric>
        </note>
      </measure>
    <measure number="15" width="82.93">
      <note default-x="13.00" default-y="-45.00">
        <pitch>
          <step>D</step>
          <octave>4</octave>
          </pitch>
        <duration>2</duration>
        <voice>1</voice>
        <type>half</type>
        <stem>down</stem>
        <lyric number="1" placement="below" color="#000000">
          <syllabic>single</syllabic>
          <text>רה
D4</text>
          </lyric>
        </note>
      <note>
        <rest/>
        <duration>2</duration>
        <voice>1</voice>
        <type>half</type>
        </note>
      </measure>
    <measure number="16" width="106.27">
      <note default-x="20.96" default-y="-45.00">
        <pitch>
          <step>D</step>
          <alter>1</alter>
          <octave>4</octave>
          </pitch>
        <duration>2</duration>
        <voice>1</voice>
        <type>half</type>
        <accidental>sharp</accidental>
        <stem>down</stem>
        <lyric number="1" placement="below" color="#000000">
          <syllabic>single</syllabic>
          <text>♯רה
D4♯</text>
          </lyric>
        </note>
      <note default-x="62.72" default-y="-40.00">
        <pitch>
          <step>E</step>
          <alter>-1</alter>
          <octave>4</octave>
          </pitch>
        <duration>2</duration>
        <voice>1</voice>
        <type>half</type>
        <accidental>flat</accidental>
        <stem>down</stem>
        <lyric number="1" placement="below" color="#000000">
          <syllabic>single</syllabic>
          <text>♭מי
E4♭</text>
          </lyric>
        </note>
      </measure>
    <measure number="17" width="82.93">
      <note default-x="13.00" default-y="-40.00">
        <pitch>
          <step>E</step>
          <octave>4</octave>
          </pitch>
        <duration>2</duration>
        <voice>1</voice>
        <type>half</type>
        <stem>down</stem>
        <lyric number="1" placement="below" color="#000000">
          <syllabic>single</syllabic>
          <text>מי
E4</text>
          </lyric>
        </note>
      <note>
        <rest/>
        <duration>2</duration>
        <voice>1</voice>
        <type>half</type>
        </note>
      </measure>
    <measure number="18" width="82.93">
      <note default-x="13.00" default-y="-35.00">
        <pitch>
          <step>F</step>
          <octave>4</octave>
          </pitch>
        <duration>2</duration>
        <voice>1</voice>
        <type>half</type>
        <stem>down</stem>
        <lyric number="1" placement="below" color="#000000">
          <syllabic>single</syllabic>
          <text>פה
F4</text>
          </lyric>
        </note>
      <note>
        <rest/>
        <duration>2</duration>
        <voice>1</voice>
        <type>half</type>
        </note>
      </measure>
    <measure number="19" width="106.27">
      <note default-x="20.96" default-y="-35.00">
        <pitch>
          <step>F</step>
          <alter>1</alter>
          <octave>4</octave>
          </pitch>
        <duration>2</duration>
        <voice>1</voice>
        <type>half</type>
        <accidental>sharp</accidental>
        <stem>down</stem>
        <lyric number="1" placement="below" color="#000000">
          <syllabic>single</syllabic>
          <text>♯פה
F4♯</text>
          </lyric>
        </note>
      <note default-x="62.72" default-y="-30.00">
        <pitch>
          <step>G</step>
          <alter>-1</alter>
          <octave>4</octave>
          </pitch>
        <duration>2</duration>
        <voice>1</voice>
        <type>half</type>
        <accidental>flat</accidental>
        <stem>down</stem>
        <lyric number="1" placement="below" color="#000000">
          <syllabic>single</syllabic>
          <text>♭סול
G4♭</text>
          </lyric>
        </note>
      </measure>
    <measure number="20" width="82.93">
      <note default-x="13.00" default-y="-30.00">
        <pitch>
          <step>G</step>
          <octave>4</octave>
          </pitch>
        <duration>2</duration>
        <voice>1</voice>
        <type>half</type>
        <stem>down</stem>
        <lyric number="1" placement="below" color="#000000">
          <syllabic>single</syllabic>
          <text>סול
G4</text>
          </lyric>
        </note>
      <note>
        <rest/>
        <duration>2</duration>
        <voice>1</voice>
        <type>half</type>
        </note>
      </measure>
    <measure number="21" width="106.27">
      <note default-x="20.96" default-y="-30.00">
        <pitch>
          <step>G</step>
          <alter>1</alter>
          <octave>4</octave>
          </pitch>
        <duration>2</duration>
        <voice>1</voice>
        <type>half</type>
        <accidental>sharp</accidental>
        <stem>down</stem>
        <lyric number="1" placement="below" color="#000000">
          <syllabic>single</syllabic>
          <text>♯סול
G4♯</text>
          </lyric>
        </note>
      <note default-x="62.72" default-y="-25.00">
        <pitch>
          <step>A</step>
          <alter>-1</alter>
          <octave>4</octave>
          </pitch>
        <duration>2</duration>
        <voice>1</voice>
        <type>half</type>
        <accidental>flat</accidental>
        <stem>down</stem>
        <lyric number="1" placement="below" color="#000000">
          <syllabic>single</syllabic>
          <text>♭לה
A4♭</text>
          </lyric>
        </note>
      </measure>
    <measure number="22" width="82.93">
      <note default-x="13.00" default-y="-25.00">
        <pitch>
          <step>A</step>
          <octave>4</octave>
          </pitch>
        <duration>2</duration>
        <voice>1</voice>
        <type>half</type>
        <stem>down</stem>
        <lyric number="1" placement="below" color="#000000">
          <syllabic>single</syllabic>
          <text>לה
A4</text>
          </lyric>
        </note>
      <note>
        <rest/>
        <duration>2</duration>
        <voice>1</voice>
        <type>half</type>
        </note>
      </measure>
    <measure number="23" width="106.27">
      <note default-x="20.96" default-y="-25.00">
        <pitch>
          <step>A</step>
          <alter>1</alter>
          <octave>4</octave>
          </pitch>
        <duration>2</duration>
        <voice>1</voice>
        <type>half</type>
        <accidental>sharp</accidental>
        <stem>down</stem>
        <lyric number="1" placement="below" color="#000000">
          <syllabic>single</syllabic>
          <text>♯לה
A4♯</text>
          </lyric>
        </note>
      <note default-x="62.72" default-y="-20.00">
        <pitch>
          <step>B</step>
          <alter>-1</alter>
          <octave>4</octave>
          </pitch>
        <duration>2</duration>
        <voice>1</voice>
        <type>half</type>
        <accidental>flat</accidental>
        <stem>down</stem>
        <lyric number="1" placement="below" color="#000000">
          <syllabic>single</syllabic>
          <text>♭סי
B4♭</text>
          </lyric>
        </note>
      </measure>
    <measure number="24" width="82.93">
      <note default-x="13.00" default-y="-20.00">
        <pitch>
          <step>B</step>
          <octave>4</octave>
          </pitch>
        <duration>2</duration>
        <voice>1</voice>
        <type>half</type>
        <stem>down</stem>
        <lyric number="1" placement="below" color="#000000">
          <syllabic>single</syllabic>
          <text>סי
B4</text>
          </lyric>
        </note>
      <note>
        <rest/>
        <duration>2</duration>
        <voice>1</voice>
        <type>half</type>
        </note>
      </measure>
    <measure number="25" width="127.53">
      <print new-system="yes">
        <system-layout>
          <system-margins>
            <left-margin>0.00</left-margin>
            <right-margin>0.00</right-margin>
            </system-margins>
          <system-distance>150.00</system-distance>
          </system-layout>
        </print>
      <note default-x="58.59" default-y="-15.00">
        <pitch>
          <step>C</step>
          <octave>5</octave>
          </pitch>
        <duration>2</duration>
        <voice>1</voice>
        <type>half</type>
        <stem>up</stem>
        <lyric number="1" placement="below" color="#000000">
          <syllabic>single</syllabic>
          <text>דו
C5</text>
          </lyric>
        </note>
      <note>
        <rest/>
        <duration>2</duration>
        <voice>1</voice>
        <type>half</type>
        </note>
      </measure>
    <measure number="26" width="105.28">
      <note default-x="20.96" default-y="-15.00">
        <pitch>
          <step>C</step>
          <alter>1</alter>
          <octave>5</octave>
          </pitch>
        <duration>2</duration>
        <voice>1</voice>
        <type>half</type>
        <accidental>sharp</accidental>
        <stem>up</stem>
        <lyric number="1" placement="below" color="#000000">
          <syllabic>single</syllabic>
          <text>♯דו
C5♯</text>
          </lyric>
        </note>
      <note default-x="62.22" default-y="-10.00">
        <pitch>
          <step>D</step>
          <alter>-1</alter>
          <octave>5</octave>
          </pitch>
        <duration>2</duration>
        <voice>1</voice>
        <type>half</type>
        <accidental>flat</accidental>
        <stem>down</stem>
        <lyric number="1" placement="below" color="#000000">
          <syllabic>single</syllabic>
          <text>♭רה
D5♭</text>
          </lyric>
        </note>
      </measure>
    <measure number="27" width="81.94">
      <note default-x="13.00" default-y="-10.00">
        <pitch>
          <step>D</step>
          <octave>5</octave>
          </pitch>
        <duration>2</duration>
        <voice>1</voice>
        <type>half</type>
        <stem>down</stem>
        <lyric number="1" placement="below" color="#000000">
          <syllabic>single</syllabic>
          <text>רה
D5</text>
          </lyric>
        </note>
      <note>
        <rest/>
        <duration>2</duration>
        <voice>1</voice>
        <type>half</type>
        </note>
      </measure>
    <measure number="28" width="105.28">
      <note default-x="20.96" default-y="-10.00">
        <pitch>
          <step>D</step>
          <alter>1</alter>
          <octave>5</octave>
          </pitch>
        <duration>2</duration>
        <voice>1</voice>
        <type>half</type>
        <accidental>sharp</accidental>
        <stem>down</stem>
        <lyric number="1" placement="below" color="#000000">
          <syllabic>single</syllabic>
          <text>♯רה
D5♯</text>
          </lyric>
        </note>
      <note default-x="62.22" default-y="-5.00">
        <pitch>
          <step>E</step>
          <alter>-1</alter>
          <octave>5</octave>
          </pitch>
        <duration>2</duration>
        <voice>1</voice>
        <type>half</type>
        <accidental>flat</accidental>
        <stem>down</stem>
        <lyric number="1" placement="below" color="#000000">
          <syllabic>single</syllabic>
          <text>♭מי
E5♭</text>
          </lyric>
        </note>
      </measure>
    <measure number="29" width="81.94">
      <note default-x="13.00" default-y="-5.00">
        <pitch>
          <step>E</step>
          <octave>5</octave>
          </pitch>
        <duration>2</duration>
        <voice>1</voice>
        <type>half</type>
        <stem>down</stem>
        <lyric number="1" placement="below" color="#000000">
          <syllabic>single</syllabic>
          <text>מי
E5</text>
          </lyric>
        </note>
      <note>
        <rest/>
        <duration>2</duration>
        <voice>1</voice>
        <type>half</type>
        </note>
      </measure>
    <measure number="30" width="81.94">
      <note default-x="13.00" default-y="0.00">
        <pitch>
          <step>F</step>
          <octave>5</octave>
          </pitch>
        <duration>2</duration>
        <voice>1</voice>
        <type>half</type>
        <stem>down</stem>
        <lyric number="1" placement="below" color="#000000">
          <syllabic>single</syllabic>
          <text>פה
F5</text>
          </lyric>
        </note>
      <note>
        <rest/>
        <duration>2</duration>
        <voice>1</voice>
        <type>half</type>
        </note>
      </measure>
    <measure number="31" width="105.28">
      <note default-x="20.96" default-y="0.00">
        <pitch>
          <step>F</step>
          <alter>1</alter>
          <octave>5</octave>
          </pitch>
        <duration>2</duration>
        <voice>1</voice>
        <type>half</type>
        <accidental>sharp</accidental>
        <stem>down</stem>
        <lyric number="1" placement="below" color="#000000">
          <syllabic>single</syllabic>
          <text>♯פה
F5♯</text>
          </lyric>
        </note>
      <note default-x="62.22" default-y="5.00">
        <pitch>
          <step>G</step>
          <alter>-1</alter>
          <octave>5</octave>
          </pitch>
        <duration>2</duration>
        <voice>1</voice>
        <type>half</type>
        <accidental>flat</accidental>
        <stem>down</stem>
        <lyric number="1" placement="below" color="#000000">
          <syllabic>single</syllabic>
          <text>♭סול
G5♭</text>
          </lyric>
        </note>
      </measure>
    <measure number="32" width="81.94">
      <note default-x="13.00" default-y="5.00">
        <pitch>
          <step>G</step>
          <octave>5</octave>
          </pitch>
        <duration>2</duration>
        <voice>1</voice>
        <type>half</type>
        <stem>down</stem>
        <lyric number="1" placement="below" color="#000000">
          <syllabic>single</syllabic>
          <text>סול
G5</text>
          </lyric>
        </note>
      <note>
        <rest/>
        <duration>2</duration>
        <voice>1</voice>
        <type>half</type>
        </note>
      </measure>
    <measure number="33" width="109.48">
      <note default-x="20.96" default-y="5.00">
        <pitch>
          <step>G</step>
          <alter>1</alter>
          <octave>5</octave>
          </pitch>
        <duration>2</duration>
        <voice>1</voice>
        <type>half</type>
        <accidental>sharp</accidental>
        <stem>down</stem>
        <lyric number="1" placement="below" color="#000000">
          <syllabic>single</syllabic>
          <text>♯סול
G5♯</text>
          </lyric>
        </note>
      <note default-x="64.32" default-y="10.00">
        <pitch>
          <step>A</step>
          <alter>-1</alter>
          <octave>5</octave>
          </pitch>
        <duration>2</duration>
        <voice>1</voice>
        <type>half</type>
        <accidental>flat</accidental>
        <stem>down</stem>
        <lyric number="1" placement="below" color="#000000">
          <syllabic>single</syllabic>
          <text>♭לה
A5♭</text>
          </lyric>
        </note>
      </measure>
    <measure number="34" width="85.44">
      <note default-x="16.50" default-y="10.00">
        <pitch>
          <step>A</step>
          <octave>5</octave>
          </pitch>
        <duration>2</duration>
        <voice>1</voice>
        <type>half</type>
        <stem>down</stem>
        <lyric number="1" placement="below" color="#000000">
          <syllabic>single</syllabic>
          <text>לה
A5</text>
          </lyric>
        </note>
      <note>
        <rest/>
        <duration>2</duration>
        <voice>1</voice>
        <type>half</type>
        </note>
      </measure>
    <measure number="35" width="114.54">
      <note default-x="24.46" default-y="10.00">
        <pitch>
          <step>A</step>
          <alter>1</alter>
          <octave>5</octave>
          </pitch>
        <duration>2</duration>
        <voice>1</voice>
        <type>half</type>
        <accidental>sharp</accidental>
        <stem>down</stem>
        <lyric number="1" placement="below" color="#000000">
          <syllabic>single</syllabic>
          <text>♯לה
A5♯</text>
          </lyric>
        </note>
      <note default-x="68.60" default-y="15.00">
        <pitch>
          <step>B</step>
          <alter>-1</alter>
          <octave>5</octave>
          </pitch>
        <duration>2</duration>
        <voice>1</voice>
        <type>half</type>
        <accidental>flat</accidental>
        <stem>down</stem>
        <lyric number="1" placement="below" color="#000000">
          <syllabic>single</syllabic>
          <text>♭סי
B5♭</text>
          </lyric>
        </note>
      </measure>
    <measure number="36" width="85.44">
      <note default-x="16.50" default-y="15.00">
        <pitch>
          <step>B</step>
          <octave>5</octave>
          </pitch>
        <duration>2</duration>
        <voice>1</voice>
        <type>half</type>
        <stem>down</stem>
        <lyric number="1" placement="below" color="#000000">
          <syllabic>single</syllabic>
          <text>סי
B5</text>
          </lyric>
        </note>
      <note>
        <rest/>
        <duration>2</duration>
        <voice>1</voice>
        <type>half</type>
        </note>
      </measure>
    <measure number="37" width="117.49">
      <print new-system="yes">
        <system-layout>
          <system-margins>
            <left-margin>0.00</left-margin>
            <right-margin>0.00</right-margin>
            </system-margins>
          <system-distance>150.00</system-distance>
          </system-layout>
        </print>
      <note default-x="62.09" default-y="20.00">
        <pitch>
          <step>C</step>
          <octave>6</octave>
          </pitch>
        <duration>2</duration>
        <voice>1</voice>
        <type>half</type>
        <stem>up</stem>
        <lyric number="1" placement="below" color="#000000">
          <syllabic>single</syllabic>
          <text>דו
C6</text>
          </lyric>
        </note>
      <note>
        <rest/>
        <duration>2</duration>
        <voice>1</voice>
        <type>half</type>
        </note>
      </measure>
    <measure number="38" width="101.00">
      <note default-x="24.46" default-y="20.00">
        <pitch>
          <step>C</step>
          <alter>1</alter>
          <octave>6</octave>
          </pitch>
        <duration>2</duration>
        <voice>1</voice>
        <type>half</type>
        <accidental>sharp</accidental>
        <stem>up</stem>
        <lyric number="1" placement="below" color="#000000">
          <syllabic>single</syllabic>
          <text>♯דו
C6♯</text>
          </lyric>
        </note>
      <note default-x="61.83" default-y="25.00">
        <pitch>
          <step>D</step>
          <alter>-1</alter>
          <octave>6</octave>
          </pitch>
        <duration>2</duration>
        <voice>1</voice>
        <type>half</type>
        <accidental>flat</accidental>
        <stem>down</stem>
        <lyric number="1" placement="below" color="#000000">
          <syllabic>single</syllabic>
          <text>♭רה
D6♭</text>
          </lyric>
        </note>
      </measure>
    <measure number="39" width="71.90">
      <note default-x="16.50" default-y="25.00">
        <pitch>
          <step>D</step>
          <octave>6</octave>
          </pitch>
        <duration>2</duration>
        <voice>1</voice>
        <type>half</type>
        <stem>down</stem>
        <lyric number="1" placement="below" color="#000000">
          <syllabic>single</syllabic>
          <text>רה
D6</text>
          </lyric>
        </note>
      <note>
        <rest/>
        <duration>2</duration>
        <voice>1</voice>
        <type>half</type>
        </note>
      </measure>
    <measure number="40" width="99.44">
      <note default-x="24.46" default-y="25.00">
        <pitch>
          <step>D</step>
          <alter>1</alter>
          <octave>6</octave>
          </pitch>
        <duration>2</duration>
        <voice>1</voice>
        <type>half</type>
        <accidental>sharp</accidental>
        <stem>down</stem>
        <lyric number="1" placement="below" color="#000000">
          <syllabic>single</syllabic>
          <text>♯רה
D6♯</text>
          </lyric>
        </note>
      <note default-x="61.05" default-y="30.00">
        <pitch>
          <step>E</step>
          <alter>-1</alter>
          <octave>6</octave>
          </pitch>
        <duration>2</duration>
        <voice>1</voice>
        <type>half</type>
        <accidental>flat</accidental>
        <stem>down</stem>
        <lyric number="1" placement="below" color="#000000">
          <syllabic>single</syllabic>
          <text>♭מי
E6♭</text>
          </lyric>
        </note>
      </measure>
    <measure number="41" width="71.90">
      <note default-x="16.50" default-y="30.00">
        <pitch>
          <step>E</step>
          <octave>6</octave>
          </pitch>
        <duration>2</duration>
        <voice>1</voice>
        <type>half</type>
        <stem>down</stem>
        <lyric number="1" placement="below" color="#000000">
          <syllabic>single</syllabic>
          <text>מי
E6</text>
          </lyric>
        </note>
      <note>
        <rest/>
        <duration>2</duration>
        <voice>1</voice>
        <type>half</type>
        </note>
      </measure>
    <measure number="42" width="71.90">
      <note default-x="16.50" default-y="35.00">
        <pitch>
          <step>F</step>
          <octave>6</octave>
          </pitch>
        <duration>2</duration>
        <voice>1</voice>
        <type>half</type>
        <stem>down</stem>
        <lyric number="1" placement="below" color="#000000">
          <syllabic>single</syllabic>
          <text>פה
F6</text>
          </lyric>
        </note>
      <note>
        <rest/>
        <duration>2</duration>
        <voice>1</voice>
        <type>half</type>
        </note>
      </measure>
    <measure number="43" width="99.44">
      <note default-x="24.46" default-y="35.00">
        <pitch>
          <step>F</step>
          <alter>1</alter>
          <octave>6</octave>
          </pitch>
        <duration>2</duration>
        <voice>1</voice>
        <type>half</type>
        <accidental>sharp</accidental>
        <stem>down</stem>
        <lyric number="1" placement="below" color="#000000">
          <syllabic>single</syllabic>
          <text>♯פה
F6♯</text>
          </lyric>
        </note>
      <note default-x="61.05" default-y="40.00">
        <pitch>
          <step>G</step>
          <alter>-1</alter>
          <octave>6</octave>
          </pitch>
        <duration>2</duration>
        <voice>1</voice>
        <type>half</type>
        <accidental>flat</accidental>
        <stem>down</stem>
        <lyric number="1" placement="below" color="#000000">
          <syllabic>single</syllabic>
          <text>♭סול
G6♭</text>
          </lyric>
        </note>
      </measure>
    <measure number="44" width="71.90">
      <note default-x="16.50" default-y="40.00">
        <pitch>
          <step>G</step>
          <octave>6</octave>
          </pitch>
        <duration>2</duration>
        <voice>1</voice>
        <type>half</type>
        <stem>down</stem>
        <lyric number="1" placement="below" color="#000000">
          <syllabic>single</syllabic>
          <text>סול
G6</text>
          </lyric>
        </note>
      <note>
        <rest/>
        <duration>2</duration>
        <voice>1</voice>
        <type>half</type>
        </note>
      </measure>
    <measure number="45" width="101.00">
      <note default-x="24.46" default-y="40.00">
        <pitch>
          <step>G</step>
          <alter>1</alter>
          <octave>6</octave>
          </pitch>
        <duration>2</duration>
        <voice>1</voice>
        <type>half</type>
        <accidental>sharp</accidental>
        <stem>down</stem>
        <lyric number="1" placement="below" color="#000000">
          <syllabic>single</syllabic>
          <text>♯סול
G6♯</text>
          </lyric>
        </note>
      <note default-x="61.83" default-y="45.00">
        <pitch>
          <step>A</step>
          <alter>-1</alter>
          <octave>6</octave>
          </pitch>
        <duration>2</duration>
        <voice>1</voice>
        <type>half</type>
        <accidental>flat</accidental>
        <stem>down</stem>
        <lyric number="1" placement="below" color="#000000">
          <syllabic>single</syllabic>
          <text>♭לה
A6♭</text>
          </lyric>
        </note>
      </measure>
    <measure number="46" width="71.90">
      <note default-x="16.50" default-y="45.00">
        <pitch>
          <step>A</step>
          <octave>6</octave>
          </pitch>
        <duration>2</duration>
        <voice>1</voice>
        <type>half</type>
        <stem>down</stem>
        <lyric number="1" placement="below" color="#000000">
          <syllabic>single</syllabic>
          <text>לה
A6</text>
          </lyric>
        </note>
      <note>
        <rest/>
        <duration>2</duration>
        <voice>1</voice>
        <type>half</type>
        </note>
      </measure>
    <measure number="47" width="99.44">
      <note default-x="24.46" default-y="45.00">
        <pitch>
          <step>A</step>
          <alter>1</alter>
          <octave>6</octave>
          </pitch>
        <duration>2</duration>
        <voice>1</voice>
        <type>half</type>
        <accidental>sharp</accidental>
        <stem>down</stem>
        <lyric number="1" placement="below" color="#000000">
          <syllabic>single</syllabic>
          <text>♯לה
A6♯</text>
          </lyric>
        </note>
      <note default-x="61.05" default-y="50.00">
        <pitch>
          <step>B</step>
          <alter>-1</alter>
          <octave>6</octave>
          </pitch>
        <duration>2</duration>
        <voice>1</voice>
        <type>half</type>
        <accidental>flat</accidental>
        <stem>down</stem>
        <lyric number="1" placement="below" color="#000000">
          <syllabic>single</syllabic>
          <text>♭סי
B6♭</text>
          </lyric>
        </note>
      </measure>
    <measure number="48" width="71.90">
      <note default-x="16.50" default-y="50.00">
        <pitch>
          <step>B</step>
          <octave>6</octave>
          </pitch>
        <duration>2</duration>
        <voice>1</voice>
        <type>half</type>
        <stem>down</stem>
        <lyric number="1" placement="below" color="#000000">
          <syllabic>single</syllabic>
          <text>סי
B6</text>
          </lyric>
        </note>
      <note>
        <rest/>
        <duration>2</duration>
        <voice>1</voice>
        <type>half</type>
        </note>
      </measure>
    <measure number="49" width="57.60">
      <note>
        <rest measure="yes"/>
        <duration>4</duration>
        <voice>1</voice>
        </note>
      </measure>
    <measure number="50" width="59.25">
      <note>
        <rest measure="yes"/>
        <duration>4</duration>
        <voice>1</voice>
        </note>
      <barline location="right">
        <bar-style>light-heavy</bar-style>
        </barline>
      </measure>
    </part>
  </score-partwise>
